<svg height='100px' width='100px'  fill="#000000" xmlns="http://www.w3.org/2000/svg" xmlns:xlink="http://www.w3.org/1999/xlink" version="1.1" x="0px" y="0px" viewBox="0 0 30 30" style="enable-background:new 0 0 30 30;" xml:space="preserve"><path d="M13.502,7.135c-0.31-0.18-0.689-0.181-0.998-0.003L5.734,11H2c-0.552,0-1,0.447-1,1v6c0,0.553,0.448,1,1,1h3.734l6.77,3.868  C12.658,22.956,12.829,23,13,23c0.173,0,0.347-0.045,0.502-0.135C13.81,22.686,14,22.356,14,22V8C14,7.644,13.81,7.314,13.502,7.135  z"></path><path d="M16.374,11.221c-0.431,0.346-0.499,0.976-0.153,1.406c1.035,1.286,1.035,3.46,0,4.746c-0.346,0.431-0.278,1.061,0.153,1.406  C16.558,18.928,16.779,19,17,19c0.292,0,0.582-0.128,0.78-0.373c1.635-2.034,1.635-5.22,0-7.254  C17.433,10.944,16.803,10.876,16.374,11.221z"></path><path d="M20.374,8.221c-0.431,0.346-0.499,0.976-0.153,1.406c2.382,2.963,2.382,7.783,0,10.746  c-0.346,0.431-0.278,1.061,0.153,1.406C20.558,21.928,20.779,22,21,22c0.292,0,0.583-0.128,0.78-0.373  c2.938-3.654,2.938-9.6,0-13.254C21.433,7.944,20.804,7.876,20.374,8.221z"></path><path d="M25.779,5.373c-0.346-0.429-0.975-0.497-1.406-0.152c-0.431,0.346-0.499,0.976-0.153,1.406  c3.712,4.617,3.712,12.129,0,16.746c-0.346,0.431-0.278,1.061,0.153,1.406C24.558,24.928,24.779,25,25,25  c0.292,0,0.582-0.128,0.78-0.373C30.047,19.318,30.047,10.682,25.779,5.373z"></path></svg>